<svg data-v-0dd9719b="" version="1.0" xmlns="http://www.w3.org/2000/svg" xmlns:xlink="http://www.w3.org/1999/xlink" width="100%" height="100%" viewBox="0 0 340.000000 250.000000" preserveAspectRatio="xMidYMid meet" color-interpolation-filters="sRGB" style="margin: auto;"> <rect data-v-0dd9719b="" x="0" y="0" width="100%" height="100%" fill="#ffffff" fill-opacity="1" class="background"></rect> <rect data-v-0dd9719b="" x="0" y="0" width="100%" height="100%" fill="url(#watermark)" fill-opacity="1" class="watermarklayer"></rect> <g data-v-0dd9719b="" fill="#0a0619" class="icon-text-wrapper icon-svg-group iconsvg" transform="translate(49.490005493172134,96.88874816894531)"><g class="iconsvg-imagesvg" transform="translate(0,0.16085243225097656)" mask="url(#79b37220-5b65-409b-a9db-a0c484a0a835)"><g><rect fill="#0a0619" fill-opacity="0" stroke-width="2" x="0" y="0" width="60" height="55.90079472296498" class="image-rect"></rect> <svg filter="url(#colors615384280)" x="0" y="0" width="60" height="55.90079472296498" filtersec="colorsf9896180737" class="image-svg-svg primary" style="overflow: visible;"><svg xmlns="http://www.w3.org/2000/svg" viewBox="0.00019065290689468384 -0.0037064694333821535 108.14981842041016 100.76066589355469"><title>资源 107</title><path d="M54.22 7.59c4.86-2.86 8.5-5.37 12.47-7.15a7.6 7.6 0 0 1 6 .38c10.71 5.93 21.34 12 31.77 18.44a8.38 8.38 0 0 1 3.47 6c.24 23.42.08 46.84.22 70.27 0 4.2-1.64 5.23-5.55 5.21q-33.23-.21-66.43 0c-3.94 0-5.56-1-5.47-5.2.25-11.53.06-23.06.1-34.59 0-4.19 3.74-8.12 7.65-8.25s8 4 8 8.43c0 6.4.13 12.81 0 19.21-.07 3.09.58 4.72 4.18 4.68 12.63-.16 25.25-.12 37.88 0 3 0 4.21-1 4.19-4.13-.11-15.74.09-31.48-.22-47.21 0-2-2-4.65-3.82-5.77-9.34-5.74-18.94-11.07-28.43-16.56-1.74-1.01-3.36-2.1-6.01-3.76z" fill="#000000"></path><path d="M.07 69.38c0-8.78-.24-17.57.17-26.32a9.08 9.08 0 0 1 3.66-6.33C14 30.5 24.28 24.53 34.75 19a9.67 9.67 0 0 1 7.85.1c10.31 5.5 20.27 11.64 30.49 17.31 3 1.63 4.15 3.55 4 6.92q-.33 10.69 0 21.39c.11 3.7-1 5.16-4.94 5.2-10.51.08-11.15.17-10.31-10.15.78-9.1-2.77-13.61-10.34-18.45-9.57-6.11-16.65-5.74-26.06.15-7.46 4.67-10.79 9.12-10.13 18 .87 11.63 0 23.39.32 35.08.12 4.85-1.44 6.39-6.27 6.19-10.58-.42-9.19 1.26-9.28-9.42C0 84 .07 76.69.07 69.38z" fill="#000000"></path></svg></svg> <defs><filter id="colors615384280"><feColorMatrix type="matrix" values="0 0 0 0 0.0390625  0 0 0 0 0.0234375  0 0 0 0 0.09765625  0 0 0 1 0" class="icon-fecolormatrix"></feColorMatrix></filter> <filter id="colorsf9896180737"><feColorMatrix type="matrix" values="0 0 0 0 0.99609375  0 0 0 0 0.99609375  0 0 0 0 0.99609375  0 0 0 1 0" class="icon-fecolormatrix"></feColorMatrix></filter> <filter id="colorsb205948314"><feColorMatrix type="matrix" values="0 0 0 0 0  0 0 0 0 0  0 0 0 0 0  0 0 0 1 0" class="icon-fecolormatrix"></feColorMatrix></filter></defs></g><rect v-gra="id" width="72" height="67.90079116821289" transform="translate(-6, -6)" style="pointer-events:none;" fill="url(#05QC02sNSM_sRjiENZVob)"></rect></g> <g transform="translate(67,0)"><g data-gra="path-name" fill-rule="" class="tp-name iconsvg-namesvg" transform="translate(0,0)"><g transform="scale(1)"><g><path d="M38.07-7.29L42.7-5.17Q42.48-4.14 42.25-2.95 42.03-1.75 41.71-0.58L41.71-0.58Q41.17 1.3 40.5 2.36 39.82 3.42 39.08 3.94 38.34 4.46 37.51 4.57 36.67 4.68 35.77 4.68L35.77 4.68Q33.8 4.68 32.17 3.33 30.55 1.98 28.71-1.08L28.71-1.08Q28.39-1.53 28.21-1.98L28.21-1.98Q25.52 0.81 21.91 3.51L21.91 3.51 18.63-0.4Q17.23 0.32 14.8 0.58L14.8 0.58 12.42 0.85 10.62-4.59 13-4.86Q14.58-5.04 15.19-5.47 15.79-5.89 15.88-7.06L15.88-7.06Q15.93-7.51 16-8.69 16.06-9.86 16.16-11.09 16.25-12.33 16.31-13.41 16.38-14.49 16.38-14.85L16.38-14.85 11.12-14.85Q11.03-11.7 10.69-9.09 10.35-6.48 9.74-4.18 9.13-1.89 8.21 0.25 7.29 2.38 6.03 4.63L6.03 4.63 0.85 2.07Q2.21-0.14 3.17-2.05 4.14-3.96 4.77-6.14 5.4-8.32 5.69-11 5.98-13.68 5.98-17.41L5.98-17.41 5.98-30.11 22.5-30.11Q22.41-30.96 22.34-31.84 22.27-32.71 22.21-33.48 22.14-34.24 22.09-34.88 22.05-35.5 22.05-35.87L22.05-35.87 27.31-35.73Q27.36-35.1 27.45-33.68 27.54-32.27 27.72-30.11L27.72-30.11 32.58-30.11Q31.68-31 30.91-31.77 30.15-32.53 29.34-33.3L29.34-33.3 32.63-36.59Q33.8-35.5 35.1-34.24 36.41-32.98 37.84-31.41L37.84-31.41 36.63-30.11 40.27-30.11 40.27-24.57 28.17-24.57Q28.53-21.06 28.96-18.07 29.38-15.07 29.97-12.51L29.97-12.51Q31.41-14.8 32.49-17.37 33.57-19.93 34.52-22.95L34.52-22.95 39.15-21.06Q37.71-16.83 36-13.23 34.29-9.63 31.9-6.39L31.9-6.39Q32.31-5.4 32.76-4.54 33.21-3.69 33.7-2.92L33.7-2.92Q34.34-2.02 34.92-1.69 35.5-1.35 35.77-1.35L35.77-1.35Q35.95-1.35 36.13-1.42 36.31-1.48 36.49-1.73 36.67-1.98 36.88-2.45 37.08-2.92 37.3-3.69L37.3-3.69Q37.48-4.32 37.66-5.22 37.84-6.12 38.07-7.29L38.07-7.29ZM20.25-2.07L20.25-2.07Q23.63-4.68 26.01-7.29L26.01-7.29Q24.97-10.66 24.19-14.92 23.4-19.17 22.9-24.57L22.9-24.57 11.16-24.57 11.16-20.29 21.82-20.29Q21.82-19.84 21.78-18.72 21.73-17.59 21.69-16.11 21.64-14.63 21.55-12.98 21.46-11.34 21.4-9.86 21.33-8.37 21.24-7.22 21.15-6.08 21.11-5.58L21.11-5.58Q20.93-3.33 20.25-2.07ZM82.03-18.63L82.03-18.63Q83.25-16.88 84.08-15.46 84.91-14.04 85.39-12.76 85.86-11.47 86.06-10.26 86.27-9.04 86.27-7.69L86.27-7.69Q86.27-5.63 85.95-4.27 85.63-2.92 84.94-2.09 84.24-1.26 83.14-0.83 82.03-0.4 80.5-0.22L80.5-0.22 78.21 0.04 76.41-5.22 78.97-5.63Q80.23-5.8 80.64-6.34 81.05-6.88 81.05-8.41L81.05-8.41Q81.05-10.13 80.15-12.31 79.25-14.49 76.63-17.55L76.63-17.55Q77.58-20.25 78.75-23.11 79.92-25.96 80.64-29.16L80.64-29.16 75.33-29.16 75.33 4.18 70.16 4.18 70.16-30.55Q69.21-28.48 68.22-26.64 67.23-24.79 66.11-23.13L66.11-23.13 69.34-23.13 69.34-18.31 62.33-18.31Q61.25-17.1 59.94-15.93L59.94-15.93 67.55-15.93 67.55 2.97 51.21 2.97 51.21-9.31Q50.4-8.78 49.57-8.26 48.73-7.74 47.84-7.2L47.84-7.2 45.18-11.7Q51.08-14.8 55.3-18.31L55.3-18.31 47.61-18.31 47.61-23.13 54.77-23.13 54.77-26.68 49.5-26.68 49.5-31.41 54.77-31.41 54.77-35.73 59.76-35.5 59.76-31.41 63.9-31.41 63.9-28.8Q64.48-29.83 64.96-30.94 65.43-32.04 65.88-33.21L65.88-33.21 70.16-31.32 70.16-34.24 85.37-34.24 85.37-28.8Q84.73-25.96 83.86-23.45 82.98-20.93 82.03-18.63ZM59.76-23.13L60.12-23.13Q61.61-24.88 62.69-26.68L62.69-26.68 59.76-26.68 59.76-23.13ZM62.87-8.64L62.87-11.34 55.98-11.34 55.98-8.64 62.87-8.64ZM55.98-1.57L62.87-1.57 62.87-4.18 55.98-4.18 55.98-1.57ZM131.85-9.49L128.12-5.08Q127.22-6.3 126.16-7.74 125.1-9.18 123.97-10.62 122.85-12.06 121.7-13.43 120.56-14.8 119.52-15.97L119.52-15.97 119.52 3.87 113.85 3.87 113.85-13.5Q111.33-9.95 108.05-6.3L108.05-6.3 103.95-10.62Q107.82-14.26 110.54-18.63 113.27-22.99 115.29-27.9L115.29-27.9 107.37-27.9 107.37-33.66 129.33-33.66 129.33-27.9 121.19-27.9Q120.51-26.01 119.77-24.25 119.03-22.5 118.17-20.84L118.17-20.84 119.52-20.79 119.52-19.53 121.23-21.11Q122.31-20.16 123.75-18.72 125.19-17.28 126.68-15.64 128.16-13.99 129.53-12.38 130.91-10.75 131.85-9.49L131.85-9.49ZM106.56-7.33L106.92-4 107.23-1.75Q106.61-1.67 105.37-1.46 104.13-1.26 102.6-1.01 101.07-0.77 99.36-0.49 97.65-0.22 96.12 0.02 94.59 0.27 93.33 0.49 92.07 0.72 91.39 0.85L91.39 0.85 90.67-4.41Q91.39-4.54 93.02-4.81 94.64-5.08 96.62-5.44L96.62-5.44 96.62-14.58 92.52-14.58 92.52-20.02 96.62-20.02 96.62-27.68 92.12-27.68 92.12-33.12 106.38-33.12 106.38-27.68 102.06-27.68 102.06-20.02 106.16-20.02 106.16-14.58 102.06-14.58 102.06-6.48Q103.5-6.75 104.72-6.97 105.93-7.2 106.56-7.33L106.56-7.33ZM168.75-6.75L150.75-6.75 150.75-20.93 145.89-20.93 145.89-2.11 173.25-2.11 173.25 3.28 140.04 3.28 140.04-20.93 135-20.93 135-26.5 140.04-26.5 140.04-34.56 145.89-34.34 145.89-26.5 150.75-26.5 150.75-35.64 156.47-35.41 156.47-26.5 163.03-26.5 163.03-35.68 168.75-35.46 168.75-26.5 174.87-26.5 174.87-20.93 168.75-20.93 168.75-6.75ZM163.03-20.93L156.47-20.93 156.47-12.2 163.03-12.2 163.03-20.93Z" transform="translate(-0.8500000238418579, 36.59000015258789)"></path></g> <!----> <!----> <!----> <!----> <!----> <!----> <!----></g></g> <g data-gra="path-slogan" fill-rule="" class="tp-slogan iconsvg-slogansvg" fill="#0a0619" transform="translate(5,47.27000045776367)"><rect x="0" height="1" y="3.9750003814697266" width="21.049991607666016"></rect> <rect height="1" y="3.9750003814697266" width="21.049991607666016" x="142.96999740600586"></rect> <g transform="translate(24.049991607666016,0)"><g transform="scale(1)"><path d="M8.06-6.05L8.06-6.05L6.94-6.05Q6.52-7.78 4.55-7.83L4.55-7.83Q1.83-7.69 1.73-4.36L1.73-4.36Q1.73-0.80 4.59-0.80L4.59-0.80Q6.56-0.84 7.03-3.19L7.03-3.19L8.16-3.19Q7.64 0.05 4.36 0.14L4.36 0.14Q0.61 0 0.52-4.31L0.52-4.31Q0.70-8.63 4.55-8.81L4.55-8.81Q7.59-8.72 8.06-6.05ZM10.69-5.06L15.19-5.06L15.19-8.58L16.36-8.58L16.36 0L15.19 0L15.19-3.98L10.69-3.98L10.69 0L9.52 0L9.52-8.58L10.69-8.58L10.69-5.06ZM19.45-1.03L24.61-1.03L24.61 0L18.28 0L18.28-8.58L24.52-8.58L24.52-7.59L19.45-7.59L19.45-4.92L24.14-4.92L24.14-3.89L19.45-3.89L19.45-1.03ZM27.52-8.58L31.83-1.64L31.83-8.58L32.95-8.58L32.95 0L31.64 0L27.28-6.94L27.23-6.94L27.23 0L26.11 0L26.11-8.58L27.52-8.58ZM41.16-3.61L38.53-3.61L38.53-4.59L42.28-4.59L42.28 0L41.53 0L41.25-1.08Q40.27 0.09 38.44 0.14L38.44 0.14Q36.70 0.14 35.77-0.75L35.77-0.75Q34.36-2.06 34.41-4.36L34.41-4.36Q34.73-8.63 38.48-8.81L38.48-8.81Q41.67-8.63 42.14-6L42.14-6L41.02-6Q40.55-7.78 38.44-7.83L38.44-7.83Q35.77-7.64 35.63-4.31L35.63-4.31Q35.63-0.75 38.48-0.75L38.48-0.75Q39.52-0.75 40.27-1.31L40.27-1.31Q41.20-2.06 41.16-3.61L41.16-3.61ZM47.58 0L44.11 0L44.11-8.58L47.63-8.58Q51.09-8.39 51.23-4.41L51.23-4.41Q51.05-0.09 47.58 0L47.58 0ZM47.44-7.64L45.28-7.64L45.28-0.98L47.53-0.98Q49.97-1.13 50.06-4.31L50.06-4.31Q50.02-7.55 47.44-7.64L47.44-7.64ZM58.36-3.19L58.36-8.58L59.53-8.58L59.53-3.05Q59.39 0.05 56.02 0.14L56.02 0.14Q52.88 0.05 52.73-2.86L52.73-2.86L52.73-8.58L53.91-8.58L53.91-3.19Q53.95-0.84 56.06-0.80L56.06-0.80Q58.36-0.84 58.36-3.19L58.36-3.19ZM65.81-5.06L70.31-5.06L70.31-8.58L71.48-8.58L71.48 0L70.31 0L70.31-3.98L65.81-3.98L65.81 0L64.64 0L64.64-8.58L65.81-8.58L65.81-5.06ZM78.94-3.19L78.94-8.58L80.11-8.58L80.11-3.05Q79.97 0.05 76.59 0.14L76.59 0.14Q73.45 0.05 73.31-2.86L73.31-2.86L73.31-8.58L74.48-8.58L74.48-3.19Q74.53-0.84 76.64-0.80L76.64-0.80Q78.94-0.84 78.94-3.19L78.94-3.19ZM87.56 0L86.72-2.48L83.25-2.48L82.36 0L81.19 0L84.42-8.58L85.73-8.58L88.83 0L87.56 0ZM84.98-7.31L83.63-3.52L86.30-3.52L85.03-7.31L84.98-7.31ZM91.27-8.58L95.58-1.64L95.58-8.58L96.70-8.58L96.70 0L95.39 0L91.03-6.94L90.98-6.94L90.98 0L89.86 0L89.86-8.58L91.27-8.58ZM104.77-6.09L104.77-6.09L103.69-6.09Q103.59-7.73 101.53-7.83L101.53-7.83Q99.61-7.78 99.61-6.33L99.61-6.33Q99.61-5.39 100.64-5.25L100.64-5.25L103.08-4.69Q105-4.22 105-2.34L105-2.34Q104.95 0.05 101.63 0.14L101.63 0.14Q99.80 0.14 99.05-0.61L99.05-0.61Q98.11-1.31 98.16-2.77L98.16-2.77L99.28-2.77Q99.33-0.80 101.63-0.75L101.63-0.75Q103.88-0.80 103.92-2.20L103.92-2.20Q104.11-3.38 102.05-3.75L102.05-3.75L100.27-4.13Q98.44-4.64 98.44-6.19L98.44-6.19Q98.58-8.72 101.44-8.81L101.44-8.81Q104.67-8.81 104.77-6.09ZM107.63-5.06L112.13-5.06L112.13-8.58L113.30-8.58L113.30 0L112.13 0L112.13-3.98L107.63-3.98L107.63 0L106.45 0L106.45-8.58L107.63-8.58L107.63-5.06ZM115.27-8.58L116.44-8.58L116.44 0L115.27 0L115.27-8.58Z" transform="translate(-0.515625, 8.8125)"></path></g></g></g></g></g><defs v-gra="od"></defs><defs v-gra="id"><filter id="bbe4a62c-58ac-4e43-919c-5a96d79e7834" filterUnits="userSpaceOnUse"><feColorMatrix type="matrix" values="0 0 0 0 0.99609375  0 0 0 0 0.99609375  0 0 0 0 0.99609375  0 0 0 1 0"></feColorMatrix></filter><linearGradient x1="0" y1="1" x2="0" y2="0" id="05QC02sNSM_sRjiENZVob"><stop offset="0%" stop-color="#03001e"></stop><stop offset="33.33%" stop-color="#7303c0"></stop><stop offset="66.67%" stop-color="#ec38bc"></stop><stop offset="100%" stop-color="#fdeff9"></stop></linearGradient><filter id="42443b3f1de60f6b6fd3b6a9844b4764" filterUnits="objectBoundingBox"><feColorMatrix type="matrix" values="0 0 0 0 0.99609375  0 0 0 0 0.99609375  0 0 0 0 0.99609375  0 0 0 1 0"></feColorMatrix></filter></defs><mask v-gra="im" id="79b37220-5b65-409b-a9db-a0c484a0a835"><g class="iconsvg-imagesvg" filter="url(#bbe4a62c-58ac-4e43-919c-5a96d79e7834)"><g><rect fill="#0a0619" fill-opacity="0" stroke-width="2" x="0" y="0" width="60" height="55.90079472296498" class="image-rect"></rect> <svg x="0" y="0" width="60" height="55.90079472296498" filtersec="colorsf9896180737" class="image-svg-svg primary" style="overflow: visible;"><svg xmlns="http://www.w3.org/2000/svg" viewBox="0.00019065290689468384 -0.0037064694333821535 108.14981842041016 100.76066589355469"><title>资源 107</title><path d="M54.22 7.59c4.86-2.86 8.5-5.37 12.47-7.15a7.6 7.6 0 0 1 6 .38c10.71 5.93 21.34 12 31.77 18.44a8.38 8.38 0 0 1 3.47 6c.24 23.42.08 46.84.22 70.27 0 4.2-1.64 5.23-5.55 5.21q-33.23-.21-66.43 0c-3.94 0-5.56-1-5.47-5.2.25-11.53.06-23.06.1-34.59 0-4.19 3.74-8.12 7.65-8.25s8 4 8 8.43c0 6.4.13 12.81 0 19.21-.07 3.09.58 4.72 4.18 4.68 12.63-.16 25.25-.12 37.88 0 3 0 4.21-1 4.19-4.13-.11-15.74.09-31.48-.22-47.21 0-2-2-4.65-3.82-5.77-9.34-5.74-18.94-11.07-28.43-16.56-1.74-1.01-3.36-2.1-6.01-3.76z" fill="#000000"></path><path d="M.07 69.38c0-8.78-.24-17.57.17-26.32a9.08 9.08 0 0 1 3.66-6.33C14 30.5 24.28 24.53 34.75 19a9.67 9.67 0 0 1 7.85.1c10.31 5.5 20.27 11.64 30.49 17.31 3 1.63 4.15 3.55 4 6.92q-.33 10.69 0 21.39c.11 3.7-1 5.16-4.94 5.2-10.51.08-11.15.17-10.31-10.15.78-9.1-2.77-13.61-10.34-18.45-9.57-6.11-16.65-5.74-26.06.15-7.46 4.67-10.79 9.12-10.13 18 .87 11.63 0 23.39.32 35.08.12 4.85-1.44 6.39-6.27 6.19-10.58-.42-9.19 1.26-9.28-9.42C0 84 .07 76.69.07 69.38z" fill="#000000"></path></svg></svg> <defs><filter id="colors615384280"><feColorMatrix type="matrix" values="0 0 0 0 0.0390625  0 0 0 0 0.0234375  0 0 0 0 0.09765625  0 0 0 1 0" class="icon-fecolormatrix"></feColorMatrix></filter> <filter id="colorsf9896180737"><feColorMatrix type="matrix" values="0 0 0 0 0.99609375  0 0 0 0 0.99609375  0 0 0 0 0.99609375  0 0 0 1 0" class="icon-fecolormatrix"></feColorMatrix></filter> <filter id="colorsb205948314"><feColorMatrix type="matrix" values="0 0 0 0 0  0 0 0 0 0  0 0 0 0 0  0 0 0 1 0" class="icon-fecolormatrix"></feColorMatrix></filter></defs></g></g></mask></svg>